<?xml version="1.0" standalone="no"?>
<!DOCTYPE svg PUBLIC "-//W3C//DTD SVG 1.1//EN" "http://www.w3.org/Graphics/SVG/1.1/DTD/svg11.dtd">
<svg version="1.1" width="2059" height="595" xmlns="http://www.w3.org/2000/svg">
<rect height="100%" width="100%" fill="#f3f3f3"/>
<g stroke="grey" stroke-dasharray="6" stroke-width="0.5"><line x1="40" y1="20" x2="100%" y2="20"/><line x1="40" y1="130" x2="100%" y2="130"/><line x1="40" y1="240" x2="100%" y2="240"/><line x1="40" y1="350" x2="100%" y2="350"/><line x1="40" y1="460" x2="100%" y2="460"/><line x1="440" y1="0" x2="440" y2="575"/><line x1="840" y1="0" x2="840" y2="575"/><line x1="1240" y1="0" x2="1240" y2="575"/><line x1="1640" y1="0" x2="1640" y2="575"/><line x1="2039" y1="0" x2="2039" y2="575"/></g>
<g fill="none" stroke="black" stroke-width="1"><line x1="0" y1="575" x2="100%" y2="575"/><line x1="40" y1="0" x2="40" y2="100%"/><line x1="40" y1="474" x2="100%" y2="474" stroke="red"/></g>
<g fill="grey" stroke="transparent"><text x="440" y="589" text-anchor="middle">400</text><text x="840" y="589" text-anchor="middle">800</text><text x="1240" y="589" text-anchor="middle">1200</text><text x="1640" y="589" text-anchor="middle">1600</text><text x="2039" y="589" text-anchor="middle">2000</text><text x="35" y="25" text-anchor="end">454</text><text x="35" y="135" text-anchor="end">339</text><text x="35" y="245" text-anchor="end">229</text><text x="35" y="355" text-anchor="end">119</text><text x="35" y="465" text-anchor="end">9</text><text x="35" y="572" text-anchor="end">-101</text><text x="45" y="469" text-anchor="start">0</text></g>
<g transform="translate(40,20) scale(1,1)" fill="none" stroke="chocolate" stroke-width="1"><polyline points="0,555 1,522 2,521 3,541 4,531 5,515 6,521 7,480 8,492 9,489 10,477 11,506 12,521 13,476 14,480 15,453 16,481 17,490 18,469 19,480 20,455 21,466 22,465 23,480 24,472 25,461 26,455 27,483 28,453 29,471 30,476 31,461 32,460 33,451 34,477 35,454 36,456 37,461 38,446 39,459 40,444 41,448 42,459 43,447 44,459 45,449 46,464 47,454 48,446 49,448 50,452 51,455 52,442 53,455 54,453 55,454 56,442 57,439 58,446 59,442 60,443 61,433 62,450 63,440 64,450 65,449 66,447 67,452 68,446 69,447 70,452 71,453 72,444 73,450 74,450 75,447 76,445 77,440 78,449 79,440 80,449 81,447 82,442 83,445 84,452 85,442 86,449 87,447 88,446 89,441 90,443 91,446 92,440 93,446 94,444 95,445 96,441 97,445 98,437 99,440 100,443 101,431 102,436 103,446 104,440 105,438 106,445 107,436 108,439 109,435 110,442 111,445 112,445 113,439 114,435 115,430 116,440 117,443 118,443 119,440 120,443 121,437 122,434 123,439 124,443 125,441 126,442 127,442 128,442 129,437 130,441 131,442 132,439 133,436 134,440 135,441 136,438 137,441 138,439 139,437 140,437 141,433 142,429 143,437 144,429 145,436 146,434 147,441 148,433 149,434 150,435 151,439 152,438 153,431 154,425 155,430 156,435 157,434 158,435 159,434 160,435 161,436 162,436 163,437 164,434 165,435 166,433 167,433 168,432 169,430 170,435 171,433 172,433 173,432 174,435 175,429 176,429 177,430 178,434 179,423 180,433 181,432 182,435 183,440 184,432 185,435 186,433 187,433 188,440 189,435 190,429 191,432 192,432 193,431 194,434 195,430 196,436 197,424 198,426 199,430 200,426 201,428 202,431 203,433 204,430 205,435 206,435 207,427 208,430 209,420 210,432 211,432 212,426 213,427 214,432 215,429 216,430 217,422 218,432 219,424 220,428 221,433 222,430 223,432 224,432 225,433 226,430 227,430 228,421 229,428 230,433 231,428 232,426 233,434 234,427 235,431 236,436 237,431 238,423 239,437 240,436 241,421 242,430 243,425 244,424 245,433 246,432 247,432 248,431 249,430 250,429 251,426 252,430 253,427 254,431 255,422 256,432 257,419 258,422 259,432 260,428 261,426 262,431 263,431 264,422 265,424 266,424 267,432 268,423 269,425 270,427 271,422 272,433 273,426 274,430 275,419 276,427 277,420 278,426 279,429 280,430 281,421 282,429 283,422 284,429 285,431 286,428 287,424 288,425 289,424 290,416 291,419 292,416 293,419 294,421 295,413 296,420 297,419 298,418 299,419 300,410 301,415 302,427 303,416 304,418 305,420 306,418 307,410 308,417 309,417 310,423 311,422 312,427 313,426 314,427 315,417 316,426 317,424 318,426 319,426 320,425 321,417 322,426 323,411 324,417 325,416 326,423 327,416 328,409 329,415 330,416 331,416 332,401 333,413 334,416 335,423 336,420 337,417 338,412 339,416 340,419 341,419 342,398 343,416 344,419 345,415 346,422 347,418 348,418 349,422 350,414 351,418 352,416 353,417 354,407 355,411 356,409 357,421 358,417 359,422 360,413 361,420 362,418 363,419 364,420 365,423 366,417 367,423 368,418 369,418 370,416 371,405 372,412 373,412 374,416 375,405 376,407 377,413 378,413 379,412 380,418 381,395 382,410 383,411 384,371 385,407 386,410 387,408 388,409 389,376 390,417 391,398 392,408 393,397 394,396 395,386 396,398 397,401 398,394 399,395 400,405 401,386 402,408 403,400 404,371 405,382 406,388 407,382 408,389 409,391 410,387 411,387 412,388 413,384 414,382 415,381 416,380 417,381 418,397 419,376 420,378 421,394 422,385 423,386 424,382 425,384 426,372 427,384 428,377 429,376 430,381 431,385 432,392 433,388 434,399 435,382 436,399 437,368 438,394 439,391 440,388 441,383 442,380 443,395 444,391 445,400 446,383 447,384 448,389 449,388 450,393 451,388 452,386 453,391 454,390 455,392 456,383 457,380 458,395 459,374 460,388 461,390 462,401 463,396 464,398 465,392 466,401 467,395 468,396 469,390 470,385 471,392 472,364 473,386 474,385 475,402 476,383 477,399 478,399 479,392 480,391 481,397 482,387 483,397 484,341 485,373 486,398 487,383 488,387 489,381 490,389 491,382 492,392 493,373 494,386 495,386 496,379 497,378 498,376 499,380 500,390 501,384 502,361 503,371 504,359 505,393 506,370 507,400 508,391 509,365 510,393 511,385 512,400 513,391 514,391 515,380 516,384 517,370 518,382 519,380 520,389 521,373 522,369 523,360 524,354 525,377 526,381 527,345 528,369 529,378 530,332 531,362 532,377 533,362 534,358 535,367 536,375 537,357 538,377 539,338 540,365 541,357 542,360 543,362 544,385 545,383 546,370 547,363 548,388 549,361 550,384 551,383 552,373 553,366 554,352 555,368 556,362 557,363 558,369 559,371 560,365 561,352 562,362 563,345 564,367 565,366 566,352 567,367 568,375 569,361 570,360 571,345 572,366 573,330 574,357 575,363 576,368 577,353 578,357 579,354 580,359 581,358 582,366 583,367 584,358 585,362 586,349 587,360 588,359 589,350 590,354 591,347 592,356 593,342 594,366 595,343 596,343 597,360 598,319 599,344 600,343 601,350 602,351 603,346 604,348 605,333 606,327 607,336 608,328 609,340 610,349 611,340 612,333 613,339 614,344 615,320 616,335 617,315 618,328 619,317 620,316 621,333 622,331 623,332 624,326 625,314 626,325 627,314 628,299 629,316 630,313 631,306 632,318 633,295 634,311 635,322 636,308 637,302 638,301 639,312 640,306 641,306 642,300 643,294 644,290 645,271 646,290 647,299 648,257 649,257 650,218 651,235 652,223 653,230 654,216 655,216 656,212 657,221 658,200 659,226 660,202 661,217 662,226 663,224 664,204 665,227 666,204 667,189 668,206 669,230 670,189 671,207 672,205 673,200 674,210 675,191 676,196 677,202 678,198 679,203 680,208 681,200 682,193 683,155 684,182 685,158 686,191 687,155 688,176 689,196 690,182 691,176 692,177 693,161 694,169 695,158 696,139 697,141 698,150 699,134 700,138 701,150 702,121 703,130 704,125 705,107 706,116 707,120 708,130 709,123 710,113 711,114 712,124 713,106 714,126 715,122 716,133 717,111 718,99 719,120 720,102 721,110 722,69 723,98 724,114 725,71 726,63 727,79 728,79 729,83 730,69 731,96 732,63 733,72 734,76 735,84 736,100 737,68 738,58 739,71 740,82 741,68 742,67 743,80 744,76 745,64 746,71 747,75 748,71 749,79 750,80 751,62 752,86 753,64 754,75 755,83 756,61 757,67 758,76 759,77 760,62 761,64 762,74 763,69 764,65 765,67 766,71 767,74 768,59 769,76 770,88 771,89 772,61 773,70 774,67 775,57 776,76 777,67 778,76 779,76 780,67 781,69 782,64 783,69 784,72 785,80 786,62 787,62 788,74 789,53 790,72 791,59 792,52 793,61 794,65 795,55 796,69 797,51 798,60 799,70 800,57 801,59 802,51 803,57 804,48 805,67 806,62 807,60 808,47 809,67 810,60 811,51 812,54 813,52 814,58 815,58 816,66 817,57 818,63 819,47 820,57 821,57 822,60 823,65 824,61 825,58 826,58 827,57 828,63 829,50 830,47 831,55 832,54 833,42 834,56 835,57 836,60 837,70 838,59 839,68 840,50 841,66 842,62 843,59 844,58 845,53 846,41 847,51 848,71 849,70 850,67 851,57 852,54 853,59 854,45 855,55 856,63 857,64 858,44 859,48 860,55 861,59 862,67 863,61 864,43 865,53 866,56 867,52 868,61 869,57 870,61 871,50 872,48 873,62 874,48 875,59 876,58 877,60 878,38 879,59 880,50 881,61 882,63 883,59 884,46 885,59 886,54 887,57 888,56 889,49 890,51 891,41 892,48 893,58 894,58 895,54 896,46 897,56 898,54 899,54 900,45 901,44 902,51 903,51 904,45 905,54 906,57 907,49 908,45 909,47 910,44 911,53 912,54 913,34 914,56 915,52 916,59 917,51 918,47 919,51 920,54 921,54 922,36 923,50 924,45 925,47 926,55 927,57 928,52 929,54 930,53 931,58 932,53 933,47 934,52 935,55 936,39 937,52 938,54 939,55 940,50 941,48 942,43 943,49 944,40 945,45 946,50 947,40 948,50 949,50 950,42 951,43 952,45 953,35 954,42 955,45 956,36 957,53 958,54 959,60 960,54 961,61 962,45 963,43 964,54 965,52 966,52 967,55 968,43 969,52 970,53 971,53 972,45 973,33 974,48 975,50 976,48 977,44 978,51 979,58 980,54 981,37 982,41 983,50 984,46 985,56 986,51 987,53 988,47 989,33 990,47 991,49 992,43 993,42 994,56 995,42 996,56 997,56 998,57 999,51 1000,53 1001,50 1002,45 1003,46 1004,49 1005,56 1006,48 1007,34 1008,49 1009,44 1010,49 1011,44 1012,54 1013,48 1014,53 1015,47 1016,52 1017,52 1018,44 1019,44 1020,41 1021,46 1022,46 1023,37 1024,32 1025,47 1026,48 1027,41 1028,46 1029,34 1030,41 1031,50 1032,38 1033,43 1034,49 1035,55 1036,52 1037,54 1038,40 1039,43 1040,41 1041,44 1042,39 1043,41 1044,35 1045,44 1046,46 1047,50 1048,53 1049,40 1050,38 1051,44 1052,44 1053,33 1054,39 1055,37 1056,49 1057,40 1058,45 1059,34 1060,47 1061,42 1062,46 1063,53 1064,49 1065,45 1066,37 1067,25 1068,46 1069,48 1070,29 1071,47 1072,42 1073,41 1074,53 1075,36 1076,60 1077,43 1078,37 1079,35 1080,46 1081,40 1082,40 1083,49 1084,45 1085,48 1086,37 1087,42 1088,44 1089,41 1090,33 1091,31 1092,47 1093,44 1094,46 1095,44 1096,38 1097,50 1098,37 1099,46 1100,36 1101,44 1102,51 1103,49 1104,40 1105,48 1106,51 1107,51 1108,44 1109,39 1110,35 1111,35 1112,36 1113,43 1114,42 1115,43 1116,48 1117,45 1118,43 1119,39 1120,45 1121,44 1122,48 1123,44 1124,46 1125,40 1126,43 1127,46 1128,44 1129,35 1130,37 1131,37 1132,42 1133,42 1134,43 1135,33 1136,41 1137,33 1138,25 1139,43 1140,31 1141,39 1142,36 1143,33 1144,43 1145,29 1146,33 1147,47 1148,47 1149,29 1150,37 1151,40 1152,32 1153,43 1154,42 1155,50 1156,33 1157,40 1158,35 1159,40 1160,23 1161,36 1162,38 1163,36 1164,29 1165,32 1166,38 1167,35 1168,35 1169,32 1170,36 1171,39 1172,41 1173,35 1174,22 1175,42 1176,33 1177,36 1178,32 1179,36 1180,38 1181,26 1182,33 1183,30 1184,32 1185,36 1186,25 1187,38 1188,39 1189,37 1190,42 1191,41 1192,44 1193,34 1194,22 1195,26 1196,39 1197,27 1198,33 1199,27 1200,39 1201,39 1202,36 1203,33 1204,36 1205,31 1206,29 1207,32 1208,35 1209,25 1210,40 1211,36 1212,40 1213,24 1214,30 1215,31 1216,28 1217,30 1218,37 1219,34 1220,36 1221,27 1222,30 1223,36 1224,37 1225,29 1226,25 1227,37 1228,22 1229,17 1230,33 1231,34 1232,41 1233,36 1234,34 1235,35 1236,20 1237,35 1238,37 1239,32 1240,32 1241,35 1242,40 1243,29 1244,27 1245,28 1246,28 1247,35 1248,26 1249,36 1250,38 1251,28 1252,30 1253,35 1254,36 1255,32 1256,31 1257,23 1258,36 1259,38 1260,27 1261,35 1262,38 1263,41 1264,38 1265,35 1266,31 1267,26 1268,37 1269,41 1270,31 1271,27 1272,17 1273,35 1274,29 1275,35 1276,35 1277,34 1278,31 1279,29 1280,29 1281,21 1282,29 1283,27 1284,28 1285,36 1286,39 1287,23 1288,32 1289,42 1290,36 1291,30 1292,33 1293,23 1294,31 1295,21 1296,32 1297,30 1298,40 1299,20 1300,27 1301,34 1302,37 1303,32 1304,37 1305,34 1306,36 1307,29 1308,28 1309,28 1310,36 1311,32 1312,41 1313,31 1314,31 1315,30 1316,30 1317,35 1318,32 1319,33 1320,30 1321,39 1322,34 1323,36 1324,27 1325,27 1326,38 1327,33 1328,35 1329,26 1330,37 1331,27 1332,34 1333,39 1334,32 1335,39 1336,39 1337,35 1338,33 1339,33 1340,37 1341,34 1342,34 1343,31 1344,27 1345,28 1346,32 1347,34 1348,36 1349,41 1350,38 1351,30 1352,25 1353,20 1354,26 1355,34 1356,26 1357,32 1358,26 1359,33 1360,35 1361,33 1362,33 1363,36 1364,35 1365,28 1366,23 1367,25 1368,29 1369,25 1370,25 1371,25 1372,36 1373,24 1374,30 1375,27 1376,34 1377,37 1378,34 1379,31 1380,30 1381,23 1382,31 1383,38 1384,36 1385,29 1386,37 1387,31 1388,26 1389,34 1390,36 1391,43 1392,27 1393,40 1394,37 1395,30 1396,31 1397,35 1398,34 1399,21 1400,24 1401,36 1402,36 1403,23 1404,30 1405,32 1406,26 1407,39 1408,33 1409,39 1410,35 1411,21 1412,29 1413,33 1414,29 1415,31 1416,23 1417,30 1418,36 1419,31 1420,34 1421,36 1422,37 1423,33 1424,37 1425,23 1426,28 1427,30 1428,32 1429,27 1430,33 1431,27 1432,31 1433,30 1434,30 1435,21 1436,32 1437,22 1438,40 1439,30 1440,31 1441,33 1442,34 1443,32 1444,33 1445,25 1446,26 1447,32 1448,33 1449,33 1450,26 1451,35 1452,32 1453,34 1454,27 1455,30 1456,31 1457,32 1458,37 1459,33 1460,27 1461,34 1462,33 1463,22 1464,32 1465,39 1466,29 1467,37 1468,29 1469,33 1470,32 1471,34 1472,25 1473,30 1474,26 1475,35 1476,32 1477,37 1478,24 1479,27 1480,36 1481,29 1482,32 1483,29 1484,34 1485,37 1486,31 1487,33 1488,35 1489,32 1490,30 1491,24 1492,23 1493,33 1494,33 1495,27 1496,39 1497,40 1498,38 1499,36 1500,36 1501,34 1502,25 1503,30 1504,22 1505,40 1506,44 1507,43 1508,28 1509,31 1510,32 1511,37 1512,23 1513,35 1514,36 1515,37 1516,34 1517,31 1518,33 1519,27 1520,29 1521,25 1522,29 1523,33 1524,23 1525,32 1526,28 1527,35 1528,34 1529,26 1530,37 1531,34 1532,35 1533,26 1534,39 1535,36 1536,37 1537,23 1538,30 1539,30 1540,26 1541,22 1542,16 1543,31 1544,31 1545,36 1546,31 1547,35 1548,39 1549,36 1550,31 1551,26 1552,25 1553,31 1554,31 1555,34 1556,24 1557,27 1558,26 1559,26 1560,34 1561,38 1562,35 1563,34 1564,31 1565,18 1566,27 1567,33 1568,32 1569,30 1570,36 1571,32 1572,24 1573,25 1574,28 1575,33 1576,39 1577,29 1578,25 1579,20 1580,25 1581,27 1582,29 1583,24 1584,24 1585,30 1586,28 1587,26 1588,32 1589,32 1590,30 1591,27 1592,31 1593,30 1594,23 1595,32 1596,31 1597,29 1598,32 1599,34 1600,26 1601,30 1602,34 1603,24 1604,35 1605,25 1606,35 1607,36 1608,31 1609,33 1610,31 1611,19 1612,25 1613,28 1614,26 1615,32 1616,32 1617,29 1618,34 1619,30 1620,36 1621,35 1622,27 1623,34 1624,28 1625,31 1626,33 1627,32 1628,30 1629,22 1630,23 1631,28 1632,23 1633,30 1634,32 1635,26 1636,33 1637,30 1638,28 1639,34 1640,38 1641,32 1642,26 1643,25 1644,24 1645,27 1646,29 1647,31 1648,15 1649,31 1650,35 1651,21 1652,30 1653,27 1654,30 1655,32 1656,31 1657,31 1658,31 1659,25 1660,24 1661,31 1662,26 1663,22 1664,24 1665,29 1666,16 1667,26 1668,34 1669,9 1670,29 1671,31 1672,32 1673,19 1674,23 1675,23 1676,25 1677,24 1678,20 1679,25 1680,25 1681,33 1682,27 1683,25 1684,19 1685,26 1686,29 1687,34 1688,30 1689,20 1690,22 1691,26 1692,29 1693,24 1694,14 1695,21 1696,30 1697,28 1698,31 1699,30 1700,26 1701,31 1702,22 1703,32 1704,25 1705,30 1706,8 1707,21 1708,20 1709,29 1710,16 1711,25 1712,19 1713,29 1714,34 1715,26 1716,30 1717,22 1718,24 1719,31 1720,18 1721,14 1722,10 1723,28 1724,33 1725,26 1726,25 1727,26 1728,12 1729,21 1730,8 1731,28 1732,15 1733,34 1734,28 1735,23 1736,32 1737,23 1738,30 1739,27 1740,25 1741,26 1742,21 1743,29 1744,20 1745,23 1746,20 1747,22 1748,29 1749,11 1750,29 1751,27 1752,24 1753,24 1754,14 1755,19 1756,20 1757,15 1758,21 1759,24 1760,19 1761,27 1762,25 1763,27 1764,21 1765,25 1766,31 1767,27 1768,14 1769,21 1770,22 1771,23 1772,24 1773,16 1774,28 1775,17 1776,26 1777,27 1778,24 1779,20 1780,22 1781,26 1782,12 1783,21 1784,25 1785,13 1786,18 1787,20 1788,25 1789,20 1790,23 1791,20 1792,25 1793,22 1794,20 1795,22 1796,20 1797,25 1798,22 1799,12 1800,21 1801,23 1802,18 1803,21 1804,17 1805,26 1806,20 1807,30 1808,20 1809,29 1810,26 1811,17 1812,22 1813,22 1814,29 1815,23 1816,18 1817,15 1818,21 1819,15 1820,30 1821,22 1822,23 1823,16 1824,28 1825,29 1826,21 1827,27 1828,18 1829,14 1830,18 1831,21 1832,18 1833,20 1834,25 1835,19 1836,22 1837,16 1838,12 1839,17 1840,16 1841,17 1842,21 1843,16 1844,16 1845,18 1846,19 1847,21 1848,12 1849,19 1850,21 1851,17 1852,22 1853,17 1854,15 1855,17 1856,15 1857,14 1858,20 1859,15 1860,18 1861,22 1862,15 1863,26 1864,9 1865,15 1866,8 1867,21 1868,16 1869,11 1870,14 1871,14 1872,15 1873,18 1874,23 1875,17 1876,11 1877,13 1878,15 1879,20 1880,24 1881,9 1882,19 1883,12 1884,13 1885,20 1886,14 1887,12 1888,15 1889,10 1890,0 1891,8 1892,21 1893,6 1894,20 1895,17 1896,15 1897,14 1898,19 1899,16 1900,20 1901,15 1902,14 1903,14 1904,14 1905,19 1906,19 1907,25 1908,19 1909,21 1910,22 1911,22 1912,13 1913,13 1914,14 1915,17 1916,17 1917,7 1918,14 1919,19 1920,20 1921,18 1922,18 1923,16 1924,8 1925,16 1926,16 1927,13 1928,11 1929,20 1930,18 1931,15 1932,15 1933,19 1934,24 1935,10 1936,19 1937,20 1938,23 1939,8 1940,16 1941,17 1942,20 1943,15 1944,5 1945,13 1946,16 1947,7 1948,15 1949,23 1950,13 1951,19 1952,15 1953,16 1954,14 1955,10 1956,14 1957,19 1958,19 1959,13 1960,16 1961,16 1962,16 1963,17 1964,15 1965,12 1966,18 1967,14 1968,13 1969,13 1970,15 1971,20 1972,20 1973,4 1974,20 1975,19 1976,8 1977,20 1978,11 1979,17 1980,17 1981,10 1982,16 1983,13 1984,7 1985,20 1986,8 1987,4 1988,10 1989,7 1990,7 1991,10 1992,20 1993,15 1994,8 1995,14 1996,18 1997,14 1998,22 1999,17"/></g>
</svg>