<?xml version="1.0" standalone="no"?><!DOCTYPE svg PUBLIC "-//W3C//DTD SVG 1.1//EN" "http://www.w3.org/Graphics/SVG/1.1/DTD/svg11.dtd"><svg version="1.1" width="60" height="954" xmlns="http://www.w3.org/2000/svg"><rect height="100%" width="100%" fill="#f3f3f3"/><g transform="translate(40,20) scale(0,2)" fill="none" stroke="blue" stroke-width="1"><polyline points="0,448 1,445 2,448 3,452 4,455 5,452 6,453 7,455 8,452 9,450 10,442 11,457 12,445 13,452 14,445 15,438 16,435 17,448 18,453 19,448 20,452 21,448 22,445 23,443 24,445 25,442 26,445 27,442 28,449 29,442 30,442 31,448 32,452 33,437 34,438 35,452 36,455 37,452 38,445 39,447 40,437 41,443 42,445 43,445 44,445 45,445 46,428 47,438 48,447 49,442 50,438 51,445 52,435 53,442 54,432 55,438 56,435 57,438 58,442 59,428 60,440 61,442 62,442 63,445 64,432 65,433 66,442 67,432 68,442 69,435 70,442 71,445 72,438 73,445 74,438 75,445 76,438 77,432 78,438 79,442 80,447 81,438 82,444 83,447 84,435 85,428 86,438 87,443 88,438 89,435 90,435 91,440 92,442 93,442 94,432 95,442 96,438 97,440 98,442 99,435 100,435 101,435 102,438 103,428 104,437 105,435 106,435 107,427 108,425 109,435 110,433 111,428 112,432 113,438 114,442 115,438 116,432 117,438 118,435 119,428 120,438 121,437 122,432 123,425 124,442 125,440 126,442 127,433 128,432 129,435 130,433 131,428 132,425 133,432 134,425 135,425 136,435 137,433 138,428 139,428 140,413 141,425 142,413 143,425 144,435 145,432 146,422 147,438 148,428 149,415 150,428 151,428 152,432 153,425 154,422 155,438 156,428 157,432 158,438 159,423 160,428 161,428 162,425 163,432 164,435 165,432 166,432 167,437 168,422 169,427 170,424 171,428 172,425 173,427 174,422 175,418 176,418 177,422 178,425 179,412 180,418 181,425 182,428 183,430 184,428 185,408 186,425 187,415 188,428 189,437 190,428 191,437 192,418 193,428 194,418 195,418 196,428 197,428 198,422 199,418 200,388 201,417 202,418 203,428 204,422 205,422 206,417 207,420 208,410 209,422 210,425 211,422 212,425 213,405 214,432 215,425 216,422 217,415 218,418 219,402 220,425 221,412 222,425 223,417 224,425 225,423 226,418 227,418 228,432 229,428 230,428 231,422 232,410 233,398 234,422 235,415 236,413 237,418 238,417 239,407 240,410 241,412 242,423 243,425 244,422 245,398 246,392 247,412 248,425 249,412 250,405 251,418 252,408 253,418 254,395 255,405 256,402 257,408 258,423 259,403 260,412 261,408 262,412 263,413 264,392 265,413 266,412 267,388 268,408 269,415 270,412 271,400 272,408 273,417 274,412 275,408 276,395 277,373 278,378 279,393 280,402 281,402 282,417 283,405 284,408 285,415 286,412 287,412 288,392 289,415 290,408 291,402 292,408 293,402 294,408 295,405 296,410 297,408 298,412 299,398 300,393 301,416 302,412 303,388 304,388 305,402 306,400 307,395 308,382 309,395 310,398 311,395 312,405 313,402 314,405 315,405 316,398 317,395 318,403 319,398 320,402 321,398 322,402 323,385 324,407 325,402 326,395 327,395 328,385 329,403 330,405 331,402 332,405 333,365 334,388 335,402 336,398 337,358 338,383 339,382 340,382 341,387 342,392 343,385 344,388 345,390 346,368 347,375 348,352 349,388 350,375 351,395 352,388 353,393 354,382 355,385 356,398 357,398 358,388 359,407 360,362 361,405 362,380 363,378 364,392 365,378 366,388 367,387 368,385 369,367 370,395 371,405 372,372 373,384 374,398 375,373 376,390 377,375 378,395 379,395 380,388 381,375 382,352 383,371 384,360 385,380 386,382 387,368 388,375 389,395 390,368 391,397 392,395 393,387 394,383 395,382 396,352 397,382 398,378 399,385 400,382 401,375 402,397 403,398 404,388 405,360 406,395 407,373 408,363 409,402 410,357 411,368 412,362 413,373 414,363 415,382 416,352 417,340 418,377 419,382 420,365 421,395 422,365 423,358 424,382 425,363 426,373 427,373 428,377 429,375 430,395 431,352 432,388 433,352 434,375 435,385 436,382 437,375 438,352 439,390 440,378 441,385 442,380 443,385 444,353 445,388 446,365 447,392 448,363 449,382 450,365 451,372 452,372 453,388 454,373 455,378 456,395 457,388 458,380 459,375 460,385 461,385 462,368 463,377 464,392 465,378 466,355 467,352 468,382 469,370 470,368 471,355 472,358 473,373 474,358 475,365 476,365 477,375 478,376 479,370 480,355 481,365 482,353 483,372 484,362 485,370 486,353 487,374 488,312 489,335 490,370 491,352 492,358 493,327 494,357 495,298 496,345 497,330 498,368 499,375 500,352 501,358 502,355 503,362 504,340 505,342 506,335 507,342 508,345 509,340 510,348 511,320 512,338 513,287 514,352 515,303 516,300 517,317 518,332 519,292 520,348 521,325 522,332 523,310 524,339 525,297 526,330 527,342 528,325 529,325 530,322 531,332 532,340 533,348 534,278 535,353 536,333 537,340 538,337 539,340 540,333 541,332 542,333 543,352 544,262 545,357 546,338 547,302 548,322 549,315 550,328 551,337 552,332 553,280 554,315 555,302 556,325 557,348 558,305 559,322 560,308 561,295 562,322 563,342 564,310 565,312 566,302 567,333 568,317 569,305 570,298 571,308 572,343 573,340 574,330 575,323 576,337 577,298 578,340 579,338 580,323 581,287 582,308 583,338 584,345 585,275 586,292 587,328 588,322 589,312 590,332 591,358 592,345 593,312 594,343 595,335 596,328 597,317 598,332 599,307 600,298 601,322 602,308 603,305 604,352 605,312 606,345 607,330 608,348 609,343 610,290 611,342 612,358 613,275 614,340 615,345 616,308 617,324 618,355 619,308 620,299 621,328 622,322 623,348 624,332 625,335 626,325 627,338 628,342 629,337 630,285 631,308 632,327 633,327 634,303 635,282 636,307 637,298 638,305 639,335 640,305 641,340 642,328 643,308 644,318 645,328 646,342 647,312 648,300 649,338 650,331 651,332 652,333 653,348 654,325 655,332 656,308 657,328 658,305 659,280 660,338 661,285 662,325 663,318 664,307 665,318 666,292 667,317 668,327 669,323 670,325 671,312 672,308 673,332 674,312 675,278 676,305 677,310 678,328 679,322 680,322 681,277 682,322 683,338 684,338 685,325 686,302 687,302 688,302 689,315 690,308 691,310 692,332 693,298 694,307 695,312 696,335 697,288 698,310 699,323 700,298 701,288 702,313 703,317 704,305 705,305 706,315 707,313 708,357 709,302 710,318 711,330 712,355 713,298 714,342 715,322 716,328 717,300 718,322 719,328 720,348 721,327 722,332 723,328 724,322 725,335 726,330 727,312 728,303 729,328 730,332 731,342 732,327 733,338 734,298 735,338 736,335 737,335 738,317 739,300 740,349 741,342 742,303 743,323 744,327 745,307 746,363 747,355 748,340 749,352 750,365 751,315 752,358 753,323 754,322 755,338 756,368 757,318 758,320 759,318 760,332 761,325 762,335 763,330 764,322 765,363 766,348 767,343 768,345 769,302 770,357 771,307 772,345 773,347 774,320 775,353 776,295 777,328 778,335 779,353 780,320 781,332 782,317 783,297 784,314 785,343 786,327 787,318 788,338 789,347 790,332 791,317 792,371 793,350 794,333 795,366 796,332 797,320 798,355 799,370 800,345 801,363 802,358 803,367 804,355 805,303 806,318 807,367 808,312 809,362 810,338 811,318 812,360 813,372 814,361 815,335 816,355 817,322 818,333 819,325 820,363 821,348 822,352 823,327 824,368 825,338 826,347 827,360 828,330 829,328 830,343 831,330 832,355 833,358 834,355 835,358 836,337 837,359 838,360 839,328 840,328 841,335 842,352 843,347 844,282 845,328 846,348 847,313 848,322 849,343 850,328 851,325 852,343 853,317 854,325 855,332 856,338 857,273 858,322 859,312 860,327 861,337 862,310 863,328 864,353 865,345 866,315 867,325 868,348 869,338 870,313 871,332 872,317 873,332 874,305 875,310 876,323 877,332 878,330 879,323 880,338 881,348 882,312 883,315 884,338 885,308 886,332 887,337 888,358 889,313 890,318 891,338 892,333 893,315 894,298 895,329 896,300 897,322 898,293 899,330 900,313 901,328 902,355 903,342 904,310 905,337 906,333 907,332 908,302 909,325 910,317 911,315 912,267 913,308 914,318 915,342 916,320 917,297 918,260 919,298 920,313 921,317 922,335 923,342 924,328 925,347 926,325 927,333 928,314 929,303 930,330 931,332 932,344 933,322 934,313 935,278 936,288 937,320 938,347 939,352 940,348 941,322 942,355 943,332 944,320 945,313 946,302 947,320 948,322 949,320 950,342 951,283 952,332 953,313 954,323 955,342 956,340 957,323 958,330 959,328 960,305 961,330 962,330 963,308 964,315 965,278 966,323 967,333 968,297 969,319 970,342 971,345 972,313 973,298 974,332 975,328 976,315 977,283 978,322 979,335 980,318 981,300 982,322 983,323 984,315 985,307 986,333 987,343 988,278 989,278 990,323 991,340 992,332 993,255 994,320 995,315 996,340 997,293 998,307 999,322 1000,297 1001,343 1002,315 1003,327 1004,307 1005,330 1006,332 1007,265 1008,306 1009,331 1010,258 1011,308 1012,307 1013,308 1014,272 1015,298 1016,287 1017,285 1018,293 1019,313 1020,292 1021,300 1022,280 1023,275 1024,292 1025,315 1026,298 1027,318 1028,258 1029,318 1030,310 1031,302 1032,287 1033,303 1034,285 1035,288 1036,202 1037,270 1038,287 1039,280 1040,320 1041,292 1042,305 1043,275 1044,310 1045,275 1046,260 1047,270 1048,251 1049,309 1050,257 1051,243 1052,309 1053,275 1054,300 1055,255 1056,283 1057,275 1058,293 1059,285 1060,295 1061,263 1062,270 1063,302 1064,283 1065,292 1066,278 1067,258 1068,312 1069,268 1070,297 1071,290 1072,223 1073,198 1074,213 1075,260 1076,240 1077,253 1078,260 1079,157 1080,235 1081,208 1082,189 1083,175 1084,177 1085,177 1086,163 1087,162 1088,232 1089,182 1090,208 1091,140 1092,218 1093,185 1094,130 1095,185 1096,200 1097,207 1098,160 1099,177 1100,242 1101,209 1102,217 1103,152 1104,230 1105,135 1106,200 1107,175 1108,215 1109,181 1110,193 1111,180 1112,212 1113,183 1114,155 1115,172 1116,162 1117,173 1118,152 1119,160 1120,185 1121,152 1122,173 1123,222 1124,148 1125,230 1126,175 1127,187 1128,165 1129,195 1130,145 1131,162 1132,218 1133,190 1134,165 1135,178 1136,177 1137,183 1138,167 1139,215 1140,175 1141,197 1142,108 1143,196 1144,110 1145,153 1146,182 1147,188 1148,186 1149,162 1150,182 1151,182 1152,155 1153,172 1154,203 1155,167 1156,185 1157,177 1158,195 1159,168 1160,182 1161,140 1162,185 1163,152 1164,158 1165,165 1166,153 1167,175 1168,118 1169,175 1170,195 1171,155 1172,195 1173,164 1174,197 1175,197 1176,167 1177,173 1178,145 1179,177 1180,162 1181,165 1182,165 1183,140 1184,207 1185,197 1186,180 1187,115 1188,123 1189,162 1190,133 1191,182 1192,137 1193,158 1194,160 1195,148 1196,185 1197,105 1198,128 1199,151 1200,186 1201,135 1202,160 1203,82 1204,172 1205,118 1206,160 1207,113 1208,102 1209,123 1210,102 1211,82 1212,145 1213,110 1214,142 1215,118 1216,146 1217,142 1218,107 1219,127 1220,87 1221,130 1222,82 1223,117 1224,87 1225,110 1226,120 1227,142 1228,107 1229,130 1230,62 1231,105 1232,118 1233,98 1234,138 1235,98 1236,100 1237,157 1238,171 1239,110 1240,98 1241,157 1242,105 1243,125 1244,133 1245,145 1246,142 1247,114 1248,130 1249,132 1250,123 1251,107 1252,102 1253,138 1254,142 1255,135 1256,127 1257,167 1258,168 1259,108 1260,113 1261,120 1262,143 1263,128 1264,102 1265,93 1266,128 1267,145 1268,110 1269,128 1270,107 1271,129 1272,82 1273,120 1274,118 1275,63 1276,125 1277,115 1278,55 1279,143 1280,132 1281,93 1282,135 1283,105 1284,110 1285,125 1286,178 1287,115 1288,129 1289,110 1290,100 1291,118 1292,123 1293,138 1294,143 1295,152 1296,125 1297,102 1298,93 1299,127 1300,127 1301,155 1302,108 1303,130 1304,58 1305,138 1306,134 1307,145 1308,118 1309,138 1310,125 1311,113 1312,115 1313,135 1314,133 1315,148 1316,93 1317,142 1318,140 1319,128 1320,133 1321,165 1322,133 1323,112 1324,153 1325,170 1326,147 1327,143 1328,120 1329,155 1330,142 1331,140 1332,138 1333,168 1334,102 1335,137 1336,137 1337,100 1338,117 1339,95 1340,122 1341,103 1342,60 1343,122 1344,88 1345,117 1346,152 1347,115 1348,92 1349,149 1350,90 1351,118 1352,102 1353,100 1354,100 1355,93 1356,130 1357,60 1358,122 1359,107 1360,98 1361,83 1362,121 1363,113 1364,103 1365,135 1366,115 1367,93 1368,113 1369,108 1370,119 1371,105 1372,95 1373,133 1374,108 1375,135 1376,123 1377,93 1378,139 1379,117 1380,93 1381,102 1382,93 1383,118 1384,127 1385,128 1386,43 1387,118 1388,95 1389,108 1390,83 1391,78 1392,87 1393,90 1394,138 1395,123 1396,97 1397,105 1398,102 1399,95 1400,132 1401,95 1402,138 1403,163 1404,80 1405,107 1406,80 1407,112 1408,105 1409,105 1410,102 1411,135 1412,108 1413,105 1414,80 1415,78 1416,113 1417,108 1418,72 1419,90 1420,100 1421,93 1422,90 1423,112 1424,127 1425,130 1426,159 1427,125 1428,87 1429,120 1430,122 1431,123 1432,138 1433,115 1434,92 1435,118 1436,133 1437,117 1438,58 1439,130 1440,127 1441,120 1442,132 1443,87 1444,93 1445,103 1446,92 1447,80 1448,128 1449,100 1450,112 1451,127 1452,100 1453,105 1454,122 1455,130 1456,113 1457,93 1458,117 1459,100 1460,113 1461,95 1462,110 1463,123 1464,47 1465,98 1466,95 1467,100 1468,92 1469,120 1470,117 1471,105 1472,92 1473,90 1474,108 1475,117 1476,110 1477,117 1478,65 1479,73 1480,110 1481,137 1482,123 1483,118 1484,93 1485,125 1486,118 1487,137 1488,160 1489,110 1490,105 1491,141 1492,110 1493,105 1494,115 1495,77 1496,107 1497,112 1498,108 1499,88 1500,93 1501,113 1502,124 1503,88 1504,123 1505,90 1506,112 1507,88 1508,87 1509,115 1510,115 1511,82 1512,115 1513,125 1514,117 1515,120 1516,85 1517,135 1518,92 1519,80 1520,88 1521,78 1522,92 1523,83 1524,100 1525,102 1526,92 1527,85 1528,93 1529,75 1530,100 1531,52 1532,55 1533,69 1534,97 1535,83 1536,102 1537,40 1538,108 1539,85 1540,67 1541,100 1542,62 1543,105 1544,92 1545,77 1546,105 1547,115 1548,92 1549,68 1550,78 1551,94 1552,78 1553,38 1554,50 1555,78 1556,95 1557,82 1558,88 1559,78 1560,55 1561,45 1562,92 1563,85 1564,89 1565,68 1566,107 1567,60 1568,65 1569,72 1570,88 1571,68 1572,87 1573,88 1574,58 1575,73 1576,67 1577,97 1578,68 1579,50 1580,72 1581,77 1582,97 1583,82 1584,84 1585,95 1586,78 1587,52 1588,82 1589,67 1590,65 1591,50 1592,72 1593,92 1594,87 1595,95 1596,67 1597,88 1598,68 1599,68 1600,102 1601,92 1602,83 1603,78 1604,95 1605,60 1606,60 1607,58 1608,67 1609,72 1610,67 1611,83 1612,52 1613,90 1614,55 1615,101 1616,43 1617,62 1618,62 1619,73 1620,78 1621,72 1622,62 1623,63 1624,102 1625,60 1626,72 1627,82 1628,87 1629,80 1630,43 1631,77 1632,65 1633,90 1634,57 1635,83 1636,57 1637,68 1638,87 1639,12 1640,37 1641,68 1642,65 1643,73 1644,65 1645,67 1646,75 1647,76 1648,57 1649,82 1650,65 1651,80 1652,68 1653,43 1654,57 1655,48 1656,63 1657,75 1658,27 1659,50 1660,62 1661,87 1662,80 1663,76 1664,78 1665,43 1666,67 1667,57 1668,43 1669,55 1670,48 1671,48 1672,62 1673,72 1674,65 1675,55 1676,67 1677,76 1678,48 1679,57 1680,60 1681,58 1682,67 1683,48 1684,28 1685,58 1686,68 1687,60 1688,55 1689,54 1690,52 1691,52 1692,40 1693,38 1694,60 1695,76 1696,37 1697,33 1698,40 1699,58 1700,45 1701,72 1702,57 1703,38 1704,55 1705,50 1706,60 1707,45 1708,58 1709,60 1710,43 1711,58 1712,53 1713,38 1714,35 1715,37 1716,63 1717,42 1718,58 1719,38 1720,60 1721,38 1722,58 1723,43 1724,27 1725,48 1726,50 1727,55 1728,57 1729,53 1730,55 1731,57 1732,28 1733,15 1734,45 1735,56 1736,38 1737,40 1738,57 1739,75 1740,52 1741,37 1742,57 1743,48 1744,47 1745,68 1746,80 1747,62 1748,66 1749,45 1750,45 1751,55 1752,48 1753,62 1754,43 1755,48 1756,63 1757,60 1758,75 1759,42 1760,55 1761,42 1762,62 1763,72 1764,63 1765,47 1766,57 1767,42 1768,59 1769,63 1770,27 1771,38 1772,62 1773,27 1774,25 1775,33 1776,45 1777,53 1778,53 1779,28 1780,44 1781,42 1782,58 1783,53 1784,13 1785,35 1786,55 1787,42 1788,50 1789,57 1790,3 1791,12 1792,27 1793,42 1794,42 1795,47 1796,32 1797,43 1798,5 1799,55 1800,35 1801,40 1802,28 1803,45 1804,53 1805,53 1806,42 1807,60 1808,53 1809,2 1810,46 1811,57 1812,35 1813,50 1814,53 1815,40 1816,22 1817,28 1818,27 1819,37 1820,32 1821,33 1822,40 1823,27 1824,50 1825,55 1826,17 1827,28 1828,27 1829,49 1830,27 1831,38 1832,43 1833,45 1834,35 1835,18 1836,45 1837,43 1838,48 1839,28 1840,52 1841,43 1842,32 1843,10 1844,48 1845,40 1846,50 1847,48 1848,50 1849,38 1850,18 1851,43 1852,43 1853,42 1854,33 1855,42 1856,52 1857,38 1858,10 1859,43 1860,37 1861,48 1862,53 1863,43 1864,39 1865,35 1866,13 1867,27 1868,38 1869,39 1870,27 1871,53 1872,32 1873,48 1874,27 1875,42 1876,38 1877,20 1878,40 1879,48 1880,35 1881,48 1882,37 1883,35 1884,45 1885,62 1886,37 1887,42 1888,42 1889,50 1890,38 1891,60 1892,20 1893,62 1894,58 1895,52 1896,42 1897,38 1898,47 1899,62 1900,40 1901,32 1902,62 1903,51 1904,40 1905,53 1906,43 1907,35 1908,44 1909,40 1910,57 1911,60 1912,52 1913,70 1914,48 1915,47 1916,47 1917,45 1918,48 1919,38 1920,55 1921,63 1922,40 1923,52 1924,35 1925,42 1926,55 1927,35 1928,63 1929,43 1930,38 1931,35 1932,61 1933,28 1934,38 1935,47 1936,48 1937,45 1938,68 1939,35 1940,51 1941,42 1942,40 1943,40 1944,30 1945,47 1946,42 1947,45 1948,15 1949,28 1950,47 1951,13 1952,42 1953,37 1954,57 1955,45 1956,40 1957,32 1958,63 1959,42 1960,45 1961,32 1962,52 1963,28 1964,43 1965,42 1966,32 1967,52 1968,38 1969,37 1970,38 1971,32 1972,42 1973,48 1974,38 1975,40 1976,32 1977,35 1978,18 1979,30 1980,25 1981,32 1982,52 1983,32 1984,32 1985,35 1986,54 1987,38 1988,7 1989,27 1990,38 1991,38 1992,17 1993,35 1994,28 1995,48 1996,32 1997,35 1998,27 1999,17 2000,37 2001,15 2002,42 2003,35 2004,35 2005,25 2006,53 2007,28 2008,28 2009,28 2010,22 2011,35 2012,35 2013,20 2014,42 2015,33 2016,33 2017,22 2018,38 2019,27 2020,30 2021,18 2022,33 2023,32 2024,45 2025,18 2026,15 2027,37 2028,47 2029,30 2030,32 2031,43 2032,35 2033,31 2034,33 2035,22 2036,42 2037,20 2038,35 2039,48 2040,50 2041,32 2042,30 2043,18 2044,43 2045,12 2046,38 2047,43 2048,47 2049,32 2050,50 2051,38 2052,38 2053,30 2054,42 2055,33 2056,27 2057,33 2058,45 2059,28 2060,32 2061,37 2062,45 2063,45 2064,32 2065,32 2066,38 2067,38 2068,20 2069,25 2070,32 2071,39 2072,52 2073,42 2074,43 2075,38 2076,33 2077,25 2078,33 2079,20 2080,55 2081,17 2082,42 2083,37 2084,42 2085,37 2086,25 2087,18 2088,48 2089,28 2090,50 2091,35 2092,55 2093,43 2094,47 2095,48 2096,48 2097,35 2098,40 2099,38 2100,25 2101,18 2102,38 2103,52 2104,47 2105,45 2106,52 2107,38 2108,28 2109,42 2110,51 2111,45 2112,52 2113,43 2114,18 2115,38 2116,33 2117,42 2118,32 2119,32 2120,52 2121,18 2122,40 2123,35 2124,48 2125,33 2126,50 2127,55 2128,53 2129,32 2130,40 2131,38 2132,38 2133,48 2134,53 2135,48 2136,38 2137,48 2138,47 2139,55 2140,2 2141,37 2142,52 2143,42 2144,52 2145,32 2146,55 2147,28 2148,45 2149,40 2150,45 2151,38 2152,38 2153,55 2154,37 2155,40 2156,48 2157,27 2158,35 2159,38 2160,54 2161,47 2162,62 2163,28 2164,30 2165,47 2166,45 2167,38 2168,38 2169,37 2170,42 2171,28 2172,12 2173,42 2174,25 2175,52 2176,48 2177,52 2178,48 2179,50 2180,45 2181,45 2182,57 2183,62 2184,38 2185,45 2186,38 2187,42 2188,49 2189,52 2190,55 2191,48 2192,52 2193,57 2194,47 2195,43 2196,27 2197,42 2198,32 2199,58 2200,40 2201,47 2202,37 2203,18 2204,28 2205,32 2206,32 2207,47 2208,27 2209,45 2210,27 2211,32 2212,40 2213,57 2214,48 2215,52 2216,35 2217,38 2218,45 2219,5 2220,43 2221,22 2222,35 2223,42 2224,45 2225,52 2226,53 2227,50 2228,52 2229,10 2230,32 2231,54 2232,35 2233,40 2234,42 2235,28 2236,13 2237,13 2238,48 2239,33 2240,42 2241,52 2242,47 2243,35 2244,37 2245,45 2246,28 2247,18 2248,31 2249,17 2250,15 2251,32 2252,22 2253,39 2254,25 2255,37 2256,32 2257,35 2258,38 2259,33 2260,60 2261,22 2262,37 2263,18 2264,33 2265,47 2266,22 2267,18 2268,32 2269,45 2270,25 2271,33 2272,22 2273,43 2274,35 2275,28 2276,40 2277,42 2278,47 2279,28 2280,27 2281,35 2282,43 2283,42 2284,33 2285,45 2286,33 2287,22 2288,33 2289,47 2290,23 2291,40 2292,42 2293,45 2294,38 2295,49 2296,15 2297,40 2298,28 2299,43 2300,27 2301,18 2302,37 2303,32 2304,45 2305,28 2306,35 2307,22 2308,30 2309,32 2310,33 2311,38 2312,12 2313,28 2314,35 2315,35 2316,50 2317,28 2318,42 2319,48 2320,48 2321,38 2322,15 2323,38 2324,32 2325,38 2326,52 2327,15 2328,52 2329,43 2330,35 2331,32 2332,42 2333,22 2334,13 2335,45 2336,42 2337,20 2338,23 2339,30 2340,32 2341,25 2342,12 2343,35 2344,25 2345,41 2346,27 2347,42 2348,28 2349,23 2350,37 2351,48 2352,42 2353,18 2354,2 2355,43 2356,28 2357,22 2358,37 2359,42 2360,28 2361,35 2362,25 2363,42 2364,18 2365,23 2366,27 2367,25 2368,40 2369,32 2370,57 2371,37 2372,35 2373,30 2374,32 2375,43 2376,37 2377,27 2378,20 2379,18 2380,22 2381,40 2382,25 2383,22 2384,42 2385,25 2386,23 2387,39 2388,38 2389,28 2390,27 2391,18 2392,28 2393,30 2394,35 2395,32 2396,35 2397,38 2398,42 2399,37 2400,50 2401,12 2402,32 2403,47 2404,37 2405,43 2406,32 2407,15 2408,33 2409,50 2410,46 2411,30 2412,13 2413,40 2414,25 2415,33 2416,35 2417,32 2418,40 2419,42 2420,43 2421,38 2422,37 2423,37 2424,25 2425,25 2426,38 2427,48 2428,48 2429,55 2430,28 2431,52 2432,40 2433,45 2434,32 2435,23 2436,42 2437,42 2438,45 2439,42 2440,43 2441,8 2442,41 2443,43 2444,23 2445,49 2446,42 2447,46 2448,37 2449,42 2450,62 2451,33 2452,30 2453,33 2454,30 2455,38 2456,42 2457,60 2458,33 2459,33 2460,37 2461,37 2462,33 2463,55 2464,33 2465,13 2466,48 2467,40 2468,42 2469,32 2470,40 2471,48 2472,32 2473,43 2474,42 2475,35 2476,47 2477,38 2478,40 2479,35 2480,25 2481,30 2482,40 2483,38 2484,33 2485,10 2486,38 2487,40 2488,35 2489,52 2490,57 2491,57 2492,43 2493,43 2494,35 2495,32 2496,35 2497,23 2498,23 2499,25 2500,38 2501,45 2502,37 2503,40 2504,45 2505,45 2506,38 2507,13 2508,35 2509,30 2510,43 2511,43 2512,27 2513,30 2514,43 2515,38 2516,48 2517,48 2518,45 2519,17 2520,47 2521,53 2522,33 2523,65 2524,20 2525,50 2526,32 2527,37 2528,35 2529,47 2530,35 2531,48 2532,35 2533,48 2534,60 2535,37 2536,38 2537,43 2538,23 2539,45 2540,25 2541,43 2542,37 2543,42 2544,32 2545,57 2546,37 2547,45 2548,43 2549,40 2550,12 2551,32 2552,42 2553,57 2554,53 2555,53 2556,48 2557,35 2558,20 2559,52 2560,50 2561,48 2562,22 2563,32 2564,23 2565,38 2566,38 2567,38 2568,23 2569,27 2570,42 2571,40 2572,25 2573,50 2574,47 2575,28 2576,38 2577,42 2578,37 2579,40 2580,38 2581,20 2582,62 2583,33 2584,33 2585,12 2586,27 2587,22 2588,35 2589,32 2590,22 2591,40 2592,35 2593,40 2594,38 2595,23 2596,43 2597,28 2598,42 2599,45 2600,33 2601,45 2602,47 2603,48 2604,12 2605,35 2606,40 2607,37 2608,40 2609,60 2610,48 2611,33 2612,53 2613,45 2614,30 2615,30 2616,20 2617,28 2618,40 2619,47 2620,53 2621,32 2622,32 2623,35 2624,27 2625,23 2626,23 2627,43 2628,42 2629,43 2630,42 2631,35 2632,35 2633,35 2634,18 2635,38 2636,40 2637,30 2638,48 2639,40 2640,33 2641,45 2642,38 2643,45 2644,28 2645,35 2646,51 2647,35 2648,35 2649,52 2650,40 2651,28 2652,27 2653,42 2654,15 2655,35 2656,23 2657,34 2658,0 2659,30 2660,37 2661,33 2662,52 2663,37 2664,25 2665,42 2666,47 2667,52 2668,25 2669,53 2670,37 2671,47 2672,45 2673,55 2674,30 2675,38 2676,28 2677,40 2678,30 2679,28 2680,27 2681,40 2682,28 2683,43 2684,37 2685,38 2686,32 2687,38 2688,22 2689,35 2690,22 2691,43 2692,22 2693,20 2694,33 2695,48 2696,37 2697,22 2698,39 2699,32 2700,42 2701,33 2702,35 2703,40 2704,27 2705,45 2706,20 2707,32 2708,22 2709,32 2710,25 2711,28 2712,22 2713,37 2714,43 2715,34 2716,42 2717,8 2718,32 2719,27 2720,39 2721,25 2722,12 2723,2 2724,25 2725,22 2726,17 2727,30 2728,33 2729,33 2730,37 2731,48 2732,43 2733,47 2734,38 2735,57 2736,43 2737,47 2738,20 2739,20 2740,20 2741,42 2742,40 2743,40 2744,44 2745,35 2746,40 2747,28 2748,35 2749,35 2750,38 2751,20 2752,23 2753,32 2754,33 2755,32 2756,35 2757,38 2758,38 2759,37 2760,35 2761,40 2762,48 2763,37 2764,17 2765,18 2766,42 2767,20 2768,38 2769,32 2770,45 2771,32 2772,38 2773,20 2774,25 2775,22 2776,22 2777,32 2778,28 2779,17 2780,27 2781,38 2782,42 2783,38 2784,27 2785,37 2786,30 2787,30 2788,45 2789,18 2790,41 2791,37 2792,32 2793,20 2794,32 2795,23 2796,23 2797,29 2798,28 2799,15 2800,18 2801,25 2802,35 2803,37 2804,48 2805,43 2806,42 2807,37 2808,48 2809,43 2810,43 2811,51 2812,35 2813,30 2814,27 2815,37 2816,28 2817,32 2818,42 2819,28 2820,30 2821,52 2822,28 2823,40 2824,32 2825,35 2826,20 2827,32 2828,30 2829,22 2830,20 2831,32 2832,46 2833,32 2834,47 2835,42 2836,25 2837,35 2838,15 2839,45 2840,37 2841,23 2842,31 2843,38 2844,40 2845,37 2846,22 2847,23 2848,35 2849,30 2850,37 2851,35 2852,23 2853,27 2854,43 2855,43 2856,45 2857,38 2858,47 2859,40 2860,36 2861,30 2862,32 2863,12 2864,40 2865,41 2866,45 2867,35 2868,47 2869,35 2870,43 2871,32 2872,50 2873,28 2874,31 2875,45 2876,53 2877,52 2878,13 2879,35 2880,32 2881,42 2882,45 2883,37 2884,35 2885,43 2886,18 2887,28 2888,52 2889,33 2890,57 2891,32 2892,28 2893,43 2894,48 2895,47 2896,38 2897,33 2898,43 2899,45 2900,53 2901,38 2902,50 2903,53 2904,47 2905,33 2906,35 2907,30 2908,45 2909,55 2910,61 2911,50 2912,30 2913,47 2914,45 2915,39 2916,35 2917,48 2918,50 2919,53 2920,63 2921,43 2922,50 2923,47 2924,45 2925,28 2926,27 2927,47 2928,98 2929,85 2930,33 2931,52 2932,65 2933,28 2934,72 2935,65 2936,48 2937,47 2938,67 2939,55 2940,68 2941,58 2942,55 2943,57 2944,60 2945,53 2946,58 2947,53 2948,42 2949,65 2950,47 2951,52 2952,58 2953,62 2954,65 2955,48 2956,63 2957,33 2958,65 2959,63 2960,57 2961,58 2962,63 2963,45 2964,75 2965,53 2966,57 2967,57 2968,58 2969,57 2970,57 2971,80 2972,48 2973,67 2974,67 2975,60 2976,51 2977,55 2978,42 2979,48 2980,50 2981,63 2982,47 2983,57 2984,53 2985,50 2986,58 2987,55 2988,50 2989,59 2990,72 2991,65 2992,70 2993,45 2994,45 2995,58 2996,53 2997,71 2998,45 2999,50"/></g><g stroke="grey" stroke-dasharray="6" stroke-width="0.5"><line x1="40" y1="20" x2="100%" y2="20"/><line x1="40" y1="200" x2="100%" y2="200"/><line x1="40" y1="380" x2="100%" y2="380"/><line x1="40" y1="570" x2="100%" y2="570"/><line x1="40" y1="750" x2="100%" y2="750"/><line x1="40" y1="0" x2="40" y2="934"/><line x1="40" y1="0" x2="40" y2="934"/><line x1="40" y1="0" x2="40" y2="934"/><line x1="40" y1="0" x2="40" y2="934"/><line x1="40" y1="0" x2="40" y2="934"/></g><g fill="none" stroke="black" stroke-width="1"><line x1="0" y1="934" x2="100%" y2="934"/><line x1="40" y1="0" x2="40" y2="100%"/></g><g fill="grey" stroke="transparent"><text x="40" y="948" text-anchor="middle">600</text><text x="40" y="948" text-anchor="middle">1200</text><text x="40" y="948" text-anchor="middle">1800</text><text x="40" y="948" text-anchor="middle">2400</text><text x="40" y="948" text-anchor="middle">3000</text><text x="35" y="25" text-anchor="end">465</text><text x="35" y="205" text-anchor="end">370</text><text x="35" y="385" text-anchor="end">280</text><text x="35" y="575" text-anchor="end">190</text><text x="35" y="755" text-anchor="end">100</text><text x="35" y="931" text-anchor="end">8</text><text x="0" y="0" text-anchor="">0</text></g></svg>